<svg width="72" height="72" viewBox="0 0 72 72" fill="none" xmlns="http://www.w3.org/2000/svg">
<g filter="url(#filter0_d_1610_11)">
<circle cx="36" cy="35" r="27" fill="white"/>
</g>
<path fill-rule="evenodd" clip-rule="evenodd" d="M22 35.0782C22 42.0385 27.0552 47.8263 33.6667 49V38.8885H30.1667V35H33.6667V31.8885C33.6667 28.3885 35.9218 26.4448 39.1115 26.4448C40.1218 26.4448 41.2115 26.6 42.2218 26.7552V30.3333H40.4333C38.7218 30.3333 38.3333 31.1885 38.3333 32.2782V35H42.0667L41.4448 38.8885H38.3333V49C44.9448 47.8263 50 42.0397 50 35.0782C50 27.335 43.7 21 36 21C28.3 21 22 27.335 22 35.0782Z" fill="#0066FF"/>
<defs>
<filter id="filter0_d_1610_11" x="0" y="0" width="72" height="72" filterUnits="userSpaceOnUse" color-interpolation-filters="sRGB">
<feFlood flood-opacity="0" result="BackgroundImageFix"/>
<feColorMatrix in="SourceAlpha" type="matrix" values="0 0 0 0 0 0 0 0 0 0 0 0 0 0 0 0 0 0 127 0" result="hardAlpha"/>
<feOffset dy="1"/>
<feGaussianBlur stdDeviation="4.5"/>
<feComposite in2="hardAlpha" operator="out"/>
<feColorMatrix type="matrix" values="0 0 0 0 0.190799 0 0 0 0 0.376146 0 0 0 0 0.654167 0 0 0 0.24 0"/>
<feBlend mode="normal" in2="BackgroundImageFix" result="effect1_dropShadow_1610_11"/>
<feBlend mode="normal" in="SourceGraphic" in2="effect1_dropShadow_1610_11" result="shape"/>
</filter>
</defs>
</svg>
