<svg width="28" height="28" viewBox="0 0 28 28" fill="none" xmlns="http://www.w3.org/2000/svg">
<path fill-rule="evenodd" clip-rule="evenodd" d="M27.8571 13.9286C27.8571 21.6211 21.6211 27.8571 13.9286 27.8571C6.23603 27.8571 0 21.6211 0 13.9286C0 6.23603 6.23603 0 13.9286 0C21.6211 0 27.8571 6.23603 27.8571 13.9286ZM13.9868 6.17871C18.3954 6.17871 21.9868 9.23233 21.9868 12.9943C21.9868 14.4975 21.432 15.8511 20.2624 17.189C18.5829 19.2117 14.8341 21.6829 13.9793 22.0607C13.1441 22.4253 13.2488 21.8338 13.2879 21.6134L13.2895 21.6042C13.3045 21.4783 13.402 20.888 13.402 20.888C13.432 20.6755 13.462 20.345 13.3795 20.1325C13.2895 19.8964 12.9371 19.7783 12.6747 19.7154C8.83593 19.1802 5.98682 16.3627 5.98682 12.9943C5.98682 9.23233 9.57819 6.17871 13.9868 6.17871ZM11.0102 15.1585C11.0927 15.1585 11.1602 15.0877 11.1602 15.0011V14.403C11.1602 14.3164 11.0927 14.2456 11.0102 14.2456H9.48822V11.3337C9.48822 11.2471 9.42074 11.1763 9.33827 11.1763H8.76845C8.68597 11.1763 8.61849 11.2471 8.61849 11.3337V15.0011C8.61849 15.0877 8.68597 15.1585 8.76845 15.1585H11.0102ZM12.3673 15.1585C12.4498 15.1585 12.5173 15.0877 12.5173 15.0011V11.3337C12.5173 11.2471 12.4498 11.1763 12.3673 11.1763H11.7975C11.715 11.1763 11.6475 11.2471 11.6475 11.3337V15.0011C11.6475 15.0877 11.715 15.1585 11.7975 15.1585H12.3673ZM16.2286 15.1585C16.3111 15.1585 16.3786 15.0877 16.3786 15.0011V11.3337C16.3786 11.2471 16.3111 11.1763 16.2286 11.1763H15.6588C15.5763 11.1763 15.5088 11.2471 15.5088 11.3337V13.5137L13.9118 11.2313L13.8968 11.2156L13.8893 11.2077L13.8818 11.1999H13.8744C13.8744 11.192 13.8669 11.192 13.8669 11.192H13.8594C13.8594 11.1841 13.8519 11.1841 13.8519 11.1841H13.8444C13.8444 11.1763 13.8369 11.1763 13.8369 11.1763H13.8294H13.8219H13.8144H13.8069H13.7994H13.7919H13.7844H13.7769H13.2146C13.1321 11.1763 13.0646 11.2471 13.0646 11.3337V15.0011C13.0646 15.0877 13.1321 15.1585 13.2146 15.1585H13.7844C13.8669 15.1585 13.9343 15.0877 13.9343 15.0011V12.829L15.5388 15.1035C15.5463 15.1192 15.5613 15.1349 15.5763 15.1428L15.5838 15.1507H15.5913H15.5988H15.6063H15.6138H15.6213C15.6288 15.1585 15.6438 15.1585 15.6588 15.1585H16.2286ZM19.3251 12.0892C19.4076 12.0892 19.4751 12.0184 19.4751 11.9318V11.3415C19.4751 11.255 19.4076 11.1841 19.3251 11.1841H17.0833C17.0009 11.1841 16.9334 11.255 16.9334 11.3415V15.0011C16.9334 15.0877 17.0009 15.1585 17.0833 15.1585H19.3251C19.4076 15.1585 19.4751 15.0877 19.4751 15.0011V14.403C19.4751 14.3164 19.4076 14.2456 19.3251 14.2456H17.7956V13.6239H19.3251C19.4076 13.6239 19.4751 13.553 19.4751 13.4665V12.8683C19.4751 12.7818 19.4076 12.7109 19.3251 12.7109H17.7956V12.0892H19.3251Z" fill="#EEBC4E"/>
</svg>
