<svg xmlns="http://www.w3.org/2000/svg" viewBox="0 0 1049.35 1049.35"><defs><style>.cls-1{fill:#fff;}</style></defs><g id="Layer_2" data-name="Layer 2"><g id="Layer_1-2" data-name="Layer 1"><path class="cls-1" d="M627.21,411.55H600.86a7.09,7.09,0,0,0-7.1,7.09V515L519.57,414.76A6.8,6.8,0,0,0,519,414l0,0a4.47,4.47,0,0,0-.42-.45l-.14-.12-.38-.32-.19-.15c-.12-.09-.25-.17-.38-.25l-.22-.14-.39-.21-.22-.11-.42-.18L516,412l-.43-.14-.25-.07-.42-.09-.3,0-.39-.05-.38,0H487.35a7.09,7.09,0,0,0-7.1,7.09V580.8a7.09,7.09,0,0,0,7.1,7.09H513.7a7.08,7.08,0,0,0,7.09-7.09V484.52l74.29,100.32a7.15,7.15,0,0,0,1.82,1.78l.09.06a4,4,0,0,0,.44.27l.21.11.34.17.35.15.23.08.49.16.1,0a7.06,7.06,0,0,0,1.85.25h26.21a7.09,7.09,0,0,0,7.09-7.09V418.64A7.09,7.09,0,0,0,627.21,411.55Z"/><rect class="cls-1" x="414.38" y="411.55" width="40.54" height="176.35" rx="7.09"/><path class="cls-1" d="M385,547.35H314V418.64a7.11,7.11,0,0,0-7.09-7.09H280.59a7.09,7.09,0,0,0-7.1,7.09V580.8a7.09,7.09,0,0,0,7.1,7.09H385a7.08,7.08,0,0,0,7.09-7.09V554.45A7.12,7.12,0,0,0,385,547.35Z"/><path class="cls-1" d="M524.68,0C234.91,0,0,234.91,0,524.68s234.91,524.67,524.68,524.67,524.67-234.9,524.67-524.67S814.45,0,524.68,0ZM815.1,677.41c-78,89.72-252.28,199-291.94,215.72s-33.8-10.64-32.18-20c.94-5.59,5.3-31.81,5.3-31.81,1.25-9.49,2.55-24.21-1.2-33.6-4.16-10.34-20.64-15.7-32.73-18.32-178.56-23.6-310.74-148.43-310.74-297.48,0-166.26,166.69-301.53,371.55-301.53S894.72,325.63,894.72,491.89c0,66.54-25.8,126.47-79.64,185.52Z"/><path class="cls-1" d="M771.11,411.55H666.73a7.09,7.09,0,0,0-7.1,7.09v.16h0v162a7.09,7.09,0,0,0,7.1,7.09H771.11a7.09,7.09,0,0,0,7.1-7.09V554.45a7.12,7.12,0,0,0-7.1-7.1H700.17V520h70.94a7.1,7.1,0,0,0,7.1-7.09V486.55a7.11,7.11,0,0,0-7.1-7.1H700.17V452.09h70.94a7.1,7.1,0,0,0,7.1-7.1V418.64A7.11,7.11,0,0,0,771.11,411.55Z"/></g></g></svg>